<svg xmlns="http://www.w3.org/2000/svg" width="78" height="320" viewBox="0 0 78 320" role="img" aria-label="spotify-cleaner, 780.285 computer applications in music"><defs><linearGradient id="r" x1="0" x2="1" y1="0" y2="0"><stop offset="0" stop-color="#000" stop-opacity=".34"/><stop offset=".14" stop-color="#fff" stop-opacity=".12"/><stop offset=".42" stop-color="#fff" stop-opacity=".03"/><stop offset=".86" stop-color="#000" stop-opacity=".1"/><stop offset="1" stop-color="#000" stop-opacity=".38"/></linearGradient></defs><rect x="1.2" y="58" width="75.6" height="248" rx="2.5" fill="#c9993f"/><rect x="1.2" y="58" width="75.6" height="248" rx="2.5" fill="url(#r)"/><rect x="7.2" y="70" width="63.6" height="2.2" fill="#2b1e06"/><rect x="7.2" y="76" width="63.6" height="1.2" fill="#2b1e06"/><rect x="7.2" y="245" width="63.6" height="1.2" fill="#2b1e06"/><path d="M29.76 101.56 35.88 101.2V102.14Q33.62 102.47 32.3 103.97Q30.98 105.47 30.98 107.63Q30.98 109.43 31.81 110.54Q32.64 111.64 33.96 111.64Q34.73 111.64 35.26 111.29Q35.78 110.94 36.3 109.97Q36.82 109 37.51 107.13Q38.23 105.28 39.1 104.06Q39.96 102.83 41.04 102.23Q42.12 101.63 43.39 101.63Q44.9 101.63 46.04 102.39Q47.18 103.14 47.83 104.48Q48.48 105.81 48.48 107.56Q48.48 109.94 46.94 112L48.14 112.43V113.01L42.96 113.27V112.34Q44.93 111.76 45.97 110.54Q47.02 109.31 47.02 107.7Q47.02 106.24 46.28 105.3Q45.55 104.37 44.4 104.37Q43.73 104.37 43.24 104.69Q42.74 105.02 42.28 105.9Q41.81 106.79 41.18 108.45Q40.34 110.68 39.42 112.07Q38.5 113.46 37.43 114.1Q36.36 114.74 35.02 114.74Q33.41 114.74 32.16 113.82Q30.91 112.91 30.22 111.3Q29.52 109.7 29.52 107.58Q29.52 106.17 29.92 104.99Q30.31 103.82 31.2 102.62L29.76 102.14ZM43.1 134.54Q41.4 134.54 40.21 133.62Q39.02 132.71 38.41 130.96Q37.8 129.21 37.8 126.66V124.62H33.58Q32.35 124.62 31.74 124.88Q31.13 125.13 30.92 125.87Q30.72 126.62 30.72 128.1H29.76V118.58H30.72Q30.77 119.66 30.97 120.2Q31.18 120.74 31.75 120.92Q32.33 121.1 33.46 121.1H44.54Q45.67 121.1 46.24 120.94Q46.8 120.78 47.02 120.3Q47.23 119.82 47.28 118.84H48.24V127.14Q48.24 130.79 46.93 132.66Q45.62 134.54 43.1 134.54ZM46.49 124.62H39.24V126.18Q39.24 128.49 40.19 129.58Q41.14 130.67 43.13 130.67Q44.93 130.67 45.91 129.75Q46.9 128.82 46.9 126.9V125.06Q46.9 124.62 46.49 124.62ZM48.48 148.19Q48.48 150.35 47.75 152.21Q47.02 154.07 45.71 155.48Q44.4 156.88 42.65 157.66Q40.9 158.44 38.86 158.44Q36.91 158.44 35.21 157.65Q33.5 156.86 32.23 155.45Q30.96 154.05 30.24 152.19Q29.52 150.33 29.52 148.19Q29.52 146.06 30.24 144.2Q30.96 142.34 32.23 140.93Q33.5 139.53 35.21 138.74Q36.91 137.94 38.86 137.94Q40.9 137.94 42.65 138.72Q44.4 139.5 45.71 140.91Q47.02 142.31 47.75 144.17Q48.48 146.03 48.48 148.19ZM31.08 148.19Q31.08 150.06 32.02 151.42Q32.95 152.78 34.69 153.52Q36.43 154.26 38.78 154.26Q41.28 154.26 43.1 153.53Q44.93 152.8 45.92 151.43Q46.92 150.06 46.92 148.19Q46.92 146.32 45.92 144.96Q44.93 143.61 43.1 142.86Q41.28 142.12 38.78 142.12Q36.43 142.12 34.69 142.86Q32.95 143.61 32.02 144.96Q31.08 146.32 31.08 148.19ZM48.24 180.74 42.96 180.98V179.94Q44.54 179.85 45.42 179.38Q46.3 178.91 46.64 178.06Q46.99 177.21 46.99 175.91Q46.99 174.69 46.93 174.06Q46.87 173.44 46.7 173.25Q46.54 173.06 46.25 173.06H33.67Q32.64 173.06 32 173.27Q31.37 173.49 31.07 174.18Q30.77 174.88 30.72 176.3H29.76V166.24H30.72Q30.77 167.68 31.07 168.38Q31.37 169.07 32 169.3Q32.64 169.53 33.67 169.53H46.25Q46.54 169.53 46.7 169.36Q46.87 169.19 46.93 168.66Q46.99 168.14 46.99 167.06Q46.99 166.19 46.9 165.4Q46.8 164.61 46.43 164.01Q46.06 163.41 45.24 163.05Q44.42 162.69 42.96 162.64V161.7L48.24 161.94ZM29.76 184.05H30.72Q30.77 185.13 31.01 185.67Q31.25 186.21 31.97 186.39Q32.69 186.57 34.18 186.57H43.82Q45.19 186.57 45.91 186.41Q46.63 186.26 46.93 185.76Q47.23 185.27 47.28 184.29H48.24V192.38H47.28Q47.23 191.39 46.93 190.9Q46.63 190.41 45.91 190.25Q45.19 190.1 43.82 190.1H34.18Q32.69 190.1 31.97 190.28Q31.25 190.46 31.01 191Q30.77 191.54 30.72 192.62H29.76ZM29.76 196.24H30.72Q30.77 197.32 30.97 197.86Q31.18 198.4 31.75 198.58Q32.33 198.76 33.46 198.76H44.54Q45.67 198.76 46.24 198.59Q46.8 198.42 47.02 197.94Q47.23 197.46 47.28 196.5H48.24V211.19L43.18 211.48V210.47Q44.54 210.28 45.36 209.84Q46.18 209.39 46.54 208.49Q46.9 207.59 46.9 206.03V202.72Q46.9 202.29 46.49 202.29H39.55Q39.55 204.23 39.79 205.26Q40.03 206.3 40.7 206.73Q41.38 207.16 42.67 207.28V208.17H35.16V207.28Q36.17 207.14 36.78 206.86Q37.39 206.58 37.72 206.06Q38.04 205.53 38.16 204.62Q38.28 203.7 38.28 202.29H33.62Q32.4 202.29 31.79 202.53Q31.18 202.77 30.97 203.52Q30.77 204.28 30.72 205.79H29.76ZM29.76 218.73H30.72Q30.72 219.74 30.96 220.28Q31.2 220.82 31.93 221.03Q32.66 221.25 34.18 221.25H36.38L45.22 216.28Q46.06 215.8 46.5 215.42Q46.94 215.03 47.11 214.59Q47.28 214.14 47.28 213.52H48.24V221.58H47.28Q47.28 220.58 47.09 220.17Q46.9 219.76 46.51 219.76Q46.27 219.76 45.94 219.9Q45.6 220.05 45.02 220.36L38.47 223.79V223.89L43.51 226.91Q44.86 227.7 45.52 228.02Q46.18 228.33 46.56 228.33Q46.97 228.33 47.12 227.96Q47.28 227.58 47.28 226.58H48.24V232.6H47.28Q47.28 232.07 47.1 231.64Q46.92 231.21 46.45 230.75Q45.98 230.3 45.1 229.71Q44.21 229.12 42.79 228.28L36.79 224.78H34.34Q32.74 224.78 31.97 224.98Q31.2 225.18 30.96 225.72Q30.72 226.26 30.72 227.27H29.76Z" fill="#2b1e06"/><rect x="8" y="254" width="62" height="36" rx="2" fill="#f3ecdc" stroke="#000" stroke-opacity=".22" stroke-width=".8"/><path d="M20.14 262.63Q20.14 262.91 20.09 263.05L17.65 268.84Q17.59 268.97 17.45 269.04Q17.3 269.11 17.1 269.11Q16.93 269.11 16.77 269.07Q16.51 269.01 16.34 268.88Q16.17 268.74 16.17 268.57Q16.17 268.5 16.21 268.41L18.41 263.28H16.27V264.41Q16.27 264.61 16.13 264.69Q16 264.78 15.63 264.78Q15.26 264.78 15.09 264.69Q14.92 264.61 14.92 264.41V262.4Q14.92 262.2 15.01 262.11Q15.1 262.02 15.3 262.02H19.78Q19.92 262.02 19.99 262.07Q20.07 262.12 20.11 262.25Q20.14 262.38 20.14 262.63ZM26.98 263.87Q26.98 264.41 26.72 264.78Q26.47 265.15 26.02 265.35Q26.58 265.56 26.89 265.97Q27.21 266.39 27.21 267.01Q27.21 267.66 26.88 268.13Q26.55 268.6 25.97 268.85Q25.38 269.11 24.61 269.11Q23.84 269.11 23.25 268.85Q22.66 268.6 22.34 268.13Q22.01 267.66 22.01 267.01Q22.01 266.38 22.32 265.97Q22.63 265.56 23.2 265.35Q22.75 265.15 22.49 264.78Q22.24 264.41 22.24 263.87Q22.24 263.33 22.53 262.88Q22.82 262.42 23.36 262.16Q23.89 261.89 24.61 261.89Q25.32 261.89 25.86 262.16Q26.4 262.42 26.69 262.88Q26.98 263.33 26.98 263.87ZM23.7 263.99Q23.7 264.36 23.94 264.58Q24.18 264.81 24.61 264.81Q25.04 264.81 25.28 264.58Q25.52 264.36 25.52 263.99Q25.52 263.62 25.27 263.4Q25.03 263.17 24.61 263.17Q24.19 263.17 23.95 263.4Q23.7 263.62 23.7 263.99ZM23.57 266.89Q23.57 267.33 23.84 267.58Q24.11 267.83 24.61 267.83Q25.11 267.83 25.38 267.58Q25.65 267.33 25.65 266.89Q25.65 266.46 25.38 266.2Q25.11 265.94 24.61 265.94Q24.11 265.94 23.84 266.2Q23.57 266.46 23.57 266.89ZM34.62 265.5Q34.62 266.56 34.28 267.38Q33.94 268.19 33.3 268.65Q32.67 269.11 31.8 269.11Q30.94 269.11 30.3 268.65Q29.67 268.19 29.33 267.38Q28.99 266.56 28.99 265.5Q28.99 264.45 29.33 263.63Q29.67 262.81 30.3 262.35Q30.94 261.89 31.8 261.89Q32.67 261.89 33.3 262.35Q33.94 262.81 34.28 263.63Q34.62 264.45 34.62 265.5ZM30.56 265.5Q30.56 266.63 30.88 267.2Q31.2 267.78 31.8 267.78Q32.41 267.78 32.73 267.2Q33.05 266.63 33.05 265.5Q33.05 264.38 32.73 263.8Q32.41 263.22 31.8 263.22Q31.2 263.22 30.88 263.8Q30.56 264.38 30.56 265.5ZM39.97 267.18V268.67Q39.97 268.87 39.74 268.95Q39.51 269.04 39 269.04Q38.49 269.04 38.26 268.95Q38.03 268.87 38.03 268.67V267.18Q38.03 266.98 38.26 266.89Q38.49 266.81 39 266.81Q39.51 266.81 39.74 266.89Q39.97 266.98 39.97 267.18ZM48.52 264.03Q48.52 264.62 48.25 265.12Q47.99 265.62 47.41 266.18L45.81 267.72H47.46V267.18Q47.46 266.97 47.6 266.89Q47.73 266.81 48.09 266.81Q48.47 266.81 48.64 266.89Q48.81 266.98 48.81 267.18V268.6Q48.81 268.8 48.72 268.89Q48.63 268.98 48.43 268.98H43.89Q43.75 268.98 43.68 268.93Q43.6 268.88 43.56 268.75Q43.52 268.62 43.52 268.37Q43.52 268.14 43.55 268.02Q43.58 267.91 43.66 267.83L46.18 265.41Q46.66 264.94 46.85 264.65Q47.03 264.37 47.03 264.06Q47.03 263.66 46.8 263.41Q46.56 263.17 46.12 263.17Q45.61 263.17 45.11 263.41V264.23Q45.11 264.44 44.97 264.52Q44.84 264.6 44.47 264.6Q44.1 264.6 43.93 264.52Q43.76 264.43 43.76 264.23V262.84Q43.76 262.6 44.01 262.47Q44.53 262.18 45.07 262.04Q45.61 261.89 46.11 261.89Q46.88 261.89 47.42 262.16Q47.96 262.43 48.24 262.91Q48.52 263.39 48.52 264.03ZM55.76 263.87Q55.76 264.41 55.51 264.78Q55.25 265.15 54.8 265.35Q55.36 265.56 55.67 265.97Q55.99 266.39 55.99 267.01Q55.99 267.66 55.66 268.13Q55.34 268.6 54.75 268.85Q54.16 269.11 53.39 269.11Q52.62 269.11 52.03 268.85Q51.45 268.6 51.12 268.13Q50.79 267.66 50.79 267.01Q50.79 266.38 51.11 265.97Q51.42 265.56 51.98 265.35Q51.53 265.15 51.28 264.78Q51.02 264.41 51.02 263.87Q51.02 263.33 51.31 262.88Q51.6 262.42 52.14 262.16Q52.68 261.89 53.39 261.89Q54.11 261.89 54.64 262.16Q55.18 262.42 55.47 262.88Q55.76 263.33 55.76 263.87ZM52.48 263.99Q52.48 264.36 52.72 264.58Q52.96 264.81 53.39 264.81Q53.82 264.81 54.06 264.58Q54.3 264.36 54.3 263.99Q54.3 263.62 54.05 263.4Q53.81 263.17 53.39 263.17Q52.97 263.17 52.73 263.4Q52.48 263.62 52.48 263.99ZM52.35 266.89Q52.35 267.33 52.62 267.58Q52.89 267.83 53.39 267.83Q53.89 267.83 54.16 267.58Q54.43 267.33 54.43 266.89Q54.43 266.46 54.16 266.2Q53.89 265.94 53.39 265.94Q52.89 265.94 52.62 266.2Q52.35 266.46 52.35 266.89ZM62.75 262.66Q62.75 263.02 62.67 263.15Q62.59 263.28 62.38 263.28H59.79L59.71 264.59Q60.28 264.37 60.84 264.37Q61.56 264.37 62.08 264.67Q62.59 264.96 62.85 265.49Q63.12 266.02 63.12 266.72Q63.12 267.89 62.38 268.5Q61.65 269.11 60.35 269.11Q59.79 269.11 59.25 268.97Q58.7 268.83 58.24 268.58Q58.02 268.46 58.02 268.21Q58.02 268.05 58.12 267.79Q58.32 267.3 58.56 267.3Q58.61 267.3 58.68 267.33Q59.58 267.78 60.35 267.78Q60.89 267.78 61.22 267.5Q61.55 267.21 61.55 266.72Q61.55 266.24 61.28 265.97Q61.01 265.7 60.53 265.7Q59.98 265.7 59.4 265.91Q59.16 266.01 58.92 266.01Q58.55 266.01 58.39 265.92Q58.24 265.83 58.25 265.63L58.44 262.4Q58.45 262.2 58.54 262.11Q58.62 262.02 58.82 262.02H62.38Q62.59 262.02 62.67 262.16Q62.75 262.29 62.75 262.66ZM34.44 276.92Q34.44 277.4 34.2 277.74Q33.97 278.08 33.54 278.29Q34.88 278.65 34.88 279.96Q34.88 280.95 34.23 281.46Q33.58 281.98 32.37 281.98H28.99Q28.85 281.98 28.77 281.93Q28.69 281.88 28.66 281.75Q28.62 281.63 28.62 281.38Q28.62 281.13 28.66 281Q28.69 280.88 28.77 280.83Q28.85 280.78 28.99 280.78H29.61V276.22H28.99Q28.85 276.22 28.77 276.18Q28.69 276.13 28.66 276Q28.62 275.87 28.62 275.63Q28.62 275.38 28.66 275.25Q28.69 275.12 28.77 275.07Q28.85 275.02 28.99 275.02H32.04Q33.26 275.02 33.85 275.52Q34.44 276.02 34.44 276.92ZM31.08 277.79H31.91Q32.44 277.79 32.7 277.61Q32.95 277.42 32.95 277.03Q32.95 276.64 32.7 276.46Q32.46 276.28 31.91 276.28H31.08ZM31.08 280.72H32.2Q33.34 280.72 33.34 279.9Q33.34 279.47 33.06 279.26Q32.78 279.05 32.2 279.05H31.08ZM40.08 275.4 41.78 280.78H42.29Q42.43 280.78 42.5 280.82Q42.58 280.87 42.62 281Q42.66 281.13 42.66 281.37Q42.66 281.62 42.62 281.75Q42.58 281.88 42.5 281.93Q42.43 281.98 42.29 281.98H39.8Q39.66 281.98 39.59 281.93Q39.51 281.88 39.47 281.75Q39.43 281.62 39.43 281.37Q39.43 281.13 39.47 281Q39.51 280.87 39.59 280.82Q39.66 280.78 39.8 280.78H40.31L40.04 279.93H37.91L37.65 280.78H38.08Q38.22 280.78 38.3 280.82Q38.37 280.87 38.41 281Q38.45 281.13 38.45 281.37Q38.45 281.62 38.41 281.75Q38.37 281.88 38.3 281.93Q38.22 281.98 38.08 281.98H35.71Q35.57 281.98 35.5 281.93Q35.42 281.88 35.38 281.75Q35.34 281.62 35.34 281.37Q35.34 281.13 35.38 281Q35.42 280.87 35.5 280.82Q35.57 280.78 35.71 280.78H36.21L37.69 276.22H36.71Q36.57 276.22 36.49 276.17Q36.42 276.12 36.38 276Q36.34 275.87 36.34 275.62Q36.34 275.37 36.38 275.25Q36.42 275.12 36.49 275.07Q36.57 275.02 36.71 275.02H39.49Q39.72 275.02 39.87 275.11Q40.01 275.2 40.08 275.4ZM38.97 276.22 38.25 278.73H39.71L39.01 276.22ZM48.66 275.26V276.87Q48.66 277.07 48.53 277.15Q48.4 277.24 48.12 277.24Q47.92 277.24 47.81 277.19Q47.7 277.14 47.64 277.05Q47.36 276.62 46.93 276.38Q46.49 276.14 45.93 276.14Q45.5 276.14 45.25 276.36Q45.01 276.58 45.01 276.92Q45.01 277.09 45.12 277.2Q45.22 277.31 45.42 277.39Q45.68 277.49 46.31 277.59Q46.92 277.71 47.3 277.81Q47.69 277.92 48.03 278.13Q48.97 278.7 48.97 279.96Q48.97 280.61 48.69 281.09Q48.42 281.57 47.88 281.84Q47.33 282.11 46.54 282.11Q45.56 282.11 44.88 281.51V281.74Q44.88 281.94 44.73 282.02Q44.59 282.11 44.22 282.11Q43.85 282.11 43.69 282.02Q43.53 281.94 43.53 281.74V279.78Q43.53 279.58 43.66 279.5Q43.78 279.41 44.07 279.41Q44.27 279.41 44.39 279.46Q44.51 279.52 44.58 279.65Q44.89 280.25 45.33 280.55Q45.77 280.86 46.36 280.86Q46.88 280.86 47.14 280.65Q47.41 280.44 47.41 280.06Q47.41 279.83 47.29 279.67Q47.17 279.5 46.95 279.39Q46.76 279.3 46.53 279.24Q46.31 279.18 45.87 279.09Q45.36 278.98 45.04 278.9Q44.71 278.81 44.42 278.66Q43.97 278.42 43.72 278.03Q43.47 277.64 43.47 277.02Q43.47 276.4 43.76 275.92Q44.04 275.43 44.56 275.16Q45.08 274.89 45.75 274.89Q46.22 274.89 46.62 275.05Q47.02 275.2 47.31 275.48V275.26Q47.31 275.06 47.45 274.98Q47.6 274.89 47.96 274.89Q48.34 274.89 48.5 274.98Q48.66 275.06 48.66 275.26Z" fill="#2a2622"/><rect x="1.7" y="58.5" width="74.6" height="247" rx="2.5" fill="none" stroke="#1b1b1f" stroke-opacity=".55" stroke-width="1"/><rect x="0" y="306" width="78" height="4" fill="#a07a55"/><rect x="0" y="310" width="78" height="10" fill="#765236"/><rect x="0" y="318.5" width="78" height="1.5" fill="#573b26"/></svg>
